#!OML:ASF H:\SpeedWalk\Project 1\Capture day 2\Session 1\male.ASF
:FULLY-SPECIFIED
:DEGREES
181
root -7.826598 21.670000 -6.455661 2.893901 -0.948301 2.441784
lowerback 12.276193 2.043726 -3.616096 
upperback -0.801252 2.243654 0.733099 
thorax -7.930114 1.258850 2.394632 
lowerneck -14.236099 0.192685 1.338736 
upperneck 10.853695 0.342574 -2.536499 
head 5.613326 0.030561 -0.987449 
rclavicle 0.000000 0.000000 
rhumerus -27.959949 -12.056690 -83.182310 
rradius 34.008952 
rwrist -3.097401 
rhand -12.071390 -10.576677 
rfingers 0.000000 
rthumb 13.988179 -40.086020 
lclavicle 0.000000 0.000000 
lhumerus -38.202143 0.876934 87.693546 
lradius 45.755739 
lwrist -7.643616 
lhand -9.142730 15.852889 
lfingers 0.000000 
lthumb 16.809005 45.145316 
rfemur -31.018297 -11.754590 15.851633 
rtibia 89.099818 
rfoot -4.191433 -7.671961 
rtoes 5.778814 
lfemur -22.090629 -5.507484 -27.395685 
ltibia 43.796522 
lfoot -21.815585 6.978118 
ltoes 5.677556 
182
root -7.820791 21.701615 -6.338110 2.782010 -0.961588 2.626455
lowerback 12.220817 1.968039 -3.753831 
upperback -0.823135 2.123406 0.718845 
thorax -7.918368 1.206217 2.481706 
lowerneck -14.224909 0.220757 1.361149 
upperneck 10.956483 0.381378 -2.561238 
head 5.644744 0.048179 -0.995830 
rclavicle 0.000000 0.000000 
rhumerus -28.026581 -11.960049 -83.183753 
rradius 34.129772 
rwrist -3.178212 
rhand -12.146513 -10.513516 
rfingers 0.000000 
rthumb 13.915784 -40.027860 
lclavicle 0.000000 0.000000 
lhumerus -38.244707 0.847806 87.696996 
lradius 45.841221 
lwrist -7.572649 
lhand -9.076131 15.937279 
lfingers 0.000000 
lthumb 16.873132 45.224285 
rfemur -32.279257 -11.851147 15.794356 
rtibia 89.777549 
rfoot -5.192550 -7.396411 
rtoes 5.230960 
lfemur -21.000048 -5.599087 -27.686315 
ltibia 42.849130 
lfoot -21.779582 7.138504 
ltoes 5.716962 
183
root -7.815914 21.730232 -6.220599 2.672690 -0.968533 2.808971
lowerback 12.162437 1.890081 -3.897735 
upperback -0.842463 1.999613 0.705880 
thorax -7.901641 1.152023 2.574295 
lowerneck -14.217873 0.247530 1.383461 
upperneck 11.055447 0.417703 -2.581085 
head 5.675615 0.064940 -1.002853 
rclavicle 0.000000 0.000000 
rhumerus -28.082467 -11.879771 -83.178172 
rradius 34.233297 
rwrist -3.254170 
rhand -12.217593 -10.462958 
rfingers 0.000000 
rthumb 13.847264 -39.982009 
lclavicle 0.000000 0.000000 
lhumerus -38.278899 0.811366 87.700726 
lradius 45.892677 
lwrist -7.543740 
lhand -9.025802 15.967560 
lfingers 0.000000 
lthumb 16.921612 45.250419 
rfemur -33.518109 -11.933282 15.758717 
rtibia 90.313310 
rfoot -6.124256 -7.175758 
rtoes 4.697261 
lfemur -19.927906 -5.683806 -27.972206 
ltibia 41.924680 
lfoot -21.758221 7.290953 
ltoes 5.738795 
184
root -7.811951 21.756006 -6.103099 2.568395 -0.970039 2.986352
lowerback 12.101616 1.809577 -4.044669 
upperback -0.861557 1.872371 0.694461 
thorax -7.882576 1.096260 2.670797 
lowerneck -14.212383 0.272155 1.406428 
upperneck 11.151124 0.450342 -2.596605 
head 5.705647 0.080267 -1.008925 
rclavicle 0.000000 0.000000 
rhumerus -28.132163 -11.812180 -83.166321 
rradius 34.323937 
rwrist -3.327975 
rhand -12.277431 -10.429559 
rfingers 0.000000 
rthumb 13.789593 -39.952551 
lclavicle 0.000000 0.000000 
lhumerus -38.308822 0.768226 87.703911 
lradius 45.912032 
lwrist -7.554787 
lhand -9.000186 15.938106 
lfingers 0.000000 
lthumb 16.946260 45.218850 
rfemur -34.735015 -12.001437 15.746910 
rtibia 90.707082 
rfoot -6.987237 -7.003874 
rtoes 4.202197 
lfemur -18.877082 -5.759491 -28.249580 
ltibia 41.023284 
lfoot -21.750074 7.434858 
ltoes 5.730836 
185
root -7.808796 21.779174 -5.985112 2.471814 -0.966370 3.160061
lowerback 12.035429 1.725969 -4.194387 
upperback -0.881535 1.741013 0.683515 
thorax -7.860593 1.038562 2.770077 
lowerneck -14.209156 0.294000 1.432652 
upperneck 11.245409 0.478409 -2.611175 
head 5.735541 0.093574 -1.015635 
rclavicle 0.000000 0.000000 
rhumerus -28.177731 -11.757974 -83.148442 
rradius 34.404462 
rwrist -3.399129 
rhand -12.322746 -10.417924 
rfingers 0.000000 
rthumb 13.745959 -39.943890 
lclavicle 0.000000 0.000000 
lhumerus -38.335731 0.719405 87.706027 
lradius 45.902049 
lwrist -7.599220 
lhand -9.003695 15.854165 
lfingers 0.000000 
lthumb 16.942840 45.135153 
rfemur -35.932571 -12.057542 15.755658 
rtibia 90.960237 
rfoot -7.788682 -6.869841 
rtoes 3.751405 
lfemur -17.847038 -5.825833 -28.520459 
ltibia 40.142857 
lfoot -21.755855 7.571072 
ltoes 5.684110 
